<?xml version="1.0" standalone="no"?>
<!DOCTYPE svg PUBLIC "-//W3C//DTD SVG 20010904//EN"
 "http://www.w3.org/TR/2001/REC-SVG-20010904/DTD/svg10.dtd">
<svg version="1.0" xmlns="http://www.w3.org/2000/svg"
 width="1356.000000pt" height="1356.000000pt" viewBox="0 0 1356.000000 1356.000000"
 preserveAspectRatio="xMidYMid meet">
<metadata>
Created by potrace 1.14, written by Peter Selinger 2001-2017
</metadata>
<g transform="translate(0.000000,1356.000000) scale(0.100000,-0.100000)"
fill="#000000" stroke="none">
<path d="M6790 10382 c-105 -6 -263 -37 -371 -72 -226 -74 -408 -187 -584
-364 -120 -120 -208 -240 -279 -382 -45 -92 -112 -278 -122 -343 -3 -20 -24
-112 -46 -206 -46 -195 -47 -201 -54 -235 -3 -14 -7 -33 -10 -42 -3 -10 -7
-30 -10 -45 -5 -28 -57 -248 -75 -318 -5 -22 -12 -51 -15 -65 -10 -48 -14 -66
-50 -220 -19 -85 -37 -162 -39 -170 -2 -8 -12 -54 -24 -102 -11 -48 -23 -99
-25 -113 -3 -14 -7 -33 -10 -43 -3 -9 -7 -28 -10 -42 -2 -14 -9 -45 -16 -70
-7 -25 -14 -56 -17 -70 -4 -23 -23 -106 -74 -323 -11 -48 -23 -100 -25 -115
-3 -15 -9 -40 -14 -57 -5 -16 -23 -93 -40 -170 -18 -77 -33 -147 -35 -155 -3
-12 -48 -209 -60 -260 -2 -8 -29 -125 -60 -260 -31 -135 -69 -299 -85 -366
-16 -66 -31 -131 -34 -145 -5 -24 -22 -99 -56 -244 -10 -44 -21 -91 -24 -105
-2 -14 -25 -113 -51 -220 -38 -164 -60 -259 -80 -350 -1 -8 -8 -33 -13 -55 -6
-22 -13 -52 -16 -68 -3 -15 -7 -35 -10 -45 -3 -9 -7 -28 -10 -42 -3 -14 -7
-35 -10 -48 -4 -12 -8 -30 -10 -40 -10 -39 -178 -768 -211 -912 -42 -184 -56
-252 -52 -257 8 -8 2040 -6 2132 2 164 14 354 67 513 142 273 129 535 389 675
669 61 122 121 296 143 418 2 12 8 39 14 61 10 40 158 683 166 720 10 52 32
147 70 305 14 58 28 116 30 130 3 14 7 33 10 42 3 9 6 25 8 35 2 10 83 363
181 783 97 421 190 824 206 895 35 149 32 138 54 230 9 39 19 81 21 95 3 14 7
33 10 42 3 10 7 28 9 40 5 25 178 777 195 843 5 22 21 92 35 155 15 63 35 153
46 200 11 47 24 103 29 125 6 22 19 81 31 130 11 50 23 99 25 110 9 45 30 139
70 305 14 58 27 114 30 125 2 11 6 32 10 47 3 15 5 30 5 33 0 2 5 19 10 37 5
18 28 114 50 213 22 99 42 187 44 195 4 13 -114 15 -1023 15 -565 0 -1047 -1
-1072 -3z"/>
<path d="M2937 9284 c-1 -1 -38 -5 -82 -9 -44 -4 -83 -9 -86 -11 -4 -2 -24 -6
-45 -10 -22 -3 -93 -23 -159 -45 -349 -116 -641 -359 -833 -696 -80 -139 -158
-363 -196 -558 -2 -11 -13 -58 -24 -105 -21 -84 -150 -643 -157 -677 -7 -34
-36 -158 -51 -222 -9 -36 -17 -72 -19 -80 -4 -17 -32 -143 -40 -176 -33 -140
-87 -376 -91 -395 -3 -14 -10 -43 -15 -65 -5 -22 -12 -51 -15 -65 -3 -14 -9
-41 -14 -60 -5 -19 -12 -50 -15 -69 -3 -19 -8 -37 -10 -41 -2 -3 -6 -17 -9
-31 -10 -53 -47 -212 -50 -218 -2 -3 -7 -24 -11 -46 -4 -22 -8 -44 -9 -50 -12
-45 -22 -89 -71 -300 -31 -132 -58 -251 -60 -265 -3 -14 -9 -40 -14 -57 -5
-18 -8 -33 -6 -33 3 0 0 -11 -5 -25 -5 -14 -12 -36 -14 -48 -2 -12 -10 -44
-16 -72 -6 -27 -13 -59 -16 -70 -2 -11 -26 -114 -53 -230 -27 -115 -47 -212
-45 -214 6 -7 2118 -4 2187 3 71 8 76 9 167 27 93 19 180 49 295 104 302 142
531 370 685 680 74 149 68 129 185 645 15 63 40 174 56 245 17 72 32 137 34
145 2 8 13 56 24 105 36 152 51 219 55 240 2 11 20 88 39 170 65 274 234 1008
243 1055 3 14 11 50 19 80 8 30 49 204 90 385 41 182 82 357 90 390 13 56 128
559 141 615 3 14 7 32 9 40 4 14 -106 16 -1041 16 -575 -1 -1046 -1 -1047 -2z"/>
<path d="M10117 9284 c-1 -1 -27 -5 -57 -9 -322 -40 -621 -188 -859 -426 -119
-119 -213 -248 -291 -404 -52 -104 -110 -259 -124 -328 -3 -12 -18 -79 -35
-149 -17 -69 -32 -137 -35 -150 -2 -13 -34 -151 -71 -308 -36 -157 -68 -295
-71 -307 -2 -12 -23 -99 -45 -195 -23 -95 -43 -182 -45 -193 -6 -35 -35 -159
-44 -195 -10 -35 -38 -156 -46 -197 -2 -12 -16 -71 -30 -130 -14 -60 -28 -117
-30 -128 -3 -18 -88 -387 -129 -560 -48 -207 -182 -788 -190 -825 -13 -63 -47
-211 -55 -240 -5 -19 -18 -72 -28 -118 l-19 -82 21 -1 c127 -4 2071 0 2122 5
386 37 771 246 1004 546 19 24 42 52 51 62 31 36 138 225 174 308 35 79 98
282 108 347 3 15 9 46 15 68 6 22 13 51 16 65 2 14 39 174 81 355 42 182 90
386 105 455 16 69 54 233 84 365 31 132 58 249 61 260 2 11 22 101 45 200 23
99 43 187 45 195 7 28 87 375 90 390 9 33 76 326 79 345 3 11 18 79 35 150 41
171 61 255 66 283 2 13 6 31 9 40 3 9 7 28 10 42 2 14 25 113 51 220 25 107
48 206 50 220 l5 26 -1061 -1 c-583 0 -1061 -1 -1062 -1z"/>
<path d="M12006 5178 c-59 -13 -151 -66 -202 -117 -159 -159 -161 -427 -5
-589 88 -92 191 -132 326 -128 79 2 98 6 160 36 77 38 163 117 194 178 89 175
60 374 -75 508 -106 104 -247 144 -398 112z m203 -87 c91 -28 174 -117 204
-218 50 -169 -30 -358 -181 -426 -65 -29 -188 -29 -253 2 -107 49 -186 167
-193 287 -9 179 95 329 254 365 42 9 122 5 169 -10z"/>
<path d="M11942 4788 c0 -123 1 -232 3 -243 3 -17 12 -21 45 -21 38 0 40 1 40
30 3 192 1 184 50 177 9 -1 46 -58 105 -161 24 -43 28 -45 70 -45 25 0 45 1
45 2 0 1 -27 48 -61 103 -34 56 -60 103 -58 105 2 2 19 7 38 12 67 17 101 113
66 186 -27 57 -74 73 -220 76 l-122 2 -1 -223z m235 139 c28 -12 37 -38 28
-78 -8 -37 -31 -47 -113 -47 l-62 0 1 70 1 69 62 -2 c33 -1 71 -7 83 -12z"/>
</g>
</svg>
